<svg width="120" height="120" viewBox="0 0 120 120" fill="none" xmlns="http://www.w3.org/2000/svg">
<path d="M68.6453 104.089V119.198H2.40234V104.089C2.40234 97.5975 7.66388 92.3359 14.1531 92.3359H56.8918C63.3838 92.3359 68.6453 97.5975 68.6453 104.089Z" fill="#3B485B"/>
<path d="M68.6511 104.089V119.198H6.43555V104.089C6.43555 97.5975 11.6971 92.3359 18.1882 92.3359H56.8976C63.3896 92.3359 68.6511 97.5975 68.6511 104.089Z" fill="#515F75"/>
<path d="M14.4901 92.3374L13.7769 110.412L21.3748 112.311L14.5523 119.133H56.5036L49.682 112.311L57.28 110.412L56.5668 92.3374" fill="#3B485B"/>
<path d="M50.0098 92.3374L42.3569 119.196H28.6954L21.0425 92.3374" fill="#F2F2F2"/>
<path d="M26.167 98.9315L35.5273 110.649L44.7952 98.9763L35.5273 97.2441L26.167 98.9315Z" fill="#F74866"/>
<path d="M25.3427 107.427L35.5261 97.2437L45.7095 107.427L50.0098 92.3374H21.0425L25.3427 107.427Z" fill="#E6E6E6"/>
<path d="M44.2346 77.246V92.3375L35.528 97.2429L32.8381 95.7277L26.8213 92.3375V77.2368L32.8381 77.2396L44.2346 77.246Z" fill="#F9C2AF"/>
<path d="M28.7451 119.196L35.5283 110.648L42.359 119.196" fill="#F74866"/>
<path d="M32.8381 77.2396L26.8213 77.2368V92.3375L32.8381 95.7277V88.7459C33.7271 88.8329 34.628 88.8823 35.5399 88.8823C38.5794 88.8823 41.5045 88.3861 44.2346 87.4697V77.246L32.8381 77.2396Z" fill="#EA9E8F"/>
<path d="M8.20862 61.3586C3.67493 61.3586 0 58.0682 0 54.0096C0 49.952 3.67493 46.6616 8.20862 46.6616H62.8711C67.4039 46.6616 71.0797 49.952 71.0797 54.0096C71.0797 58.0682 67.4048 61.3586 62.8711 61.3586" fill="#EA9E8F"/>
<path d="M62.8729 30.5796V57.9117C62.8729 73.006 50.6369 85.243 35.5408 85.243C27.995 85.243 21.1597 82.1833 16.2149 77.2376C11.2701 72.2928 8.21045 65.4575 8.21045 57.9117V30.5796H62.8729Z" fill="#F9C2AF"/>
<path d="M35.3476 85.2421C27.876 85.1917 21.1203 82.1421 16.2149 77.2385C11.2692 72.291 8.21045 65.4603 8.21045 57.9117V30.5796H20.5151V57.9117C20.5151 65.4603 22.1961 72.291 24.9152 77.2385C27.5931 82.1073 31.2744 85.1469 35.3476 85.2421Z" fill="#EA9E8F"/>
<path d="M31.0645 56.3577C31.0645 55.3561 31.8756 54.5449 32.8772 54.5449H36.6757C37.6764 54.5449 38.4885 55.3561 38.4885 56.3577C38.4885 57.3583 37.6764 58.1704 36.6757 58.1704H32.8772C31.8756 58.1704 31.0645 57.3583 31.0645 56.3577Z" fill="#293544"/>
<path d="M62.8729 30.5796V37.4287C61.0007 38.7699 58.7595 39.9473 56.0989 40.9067C46.1948 44.4736 36.6064 43.2734 29.827 41.3828C29.827 41.3828 29.8242 41.3828 29.8242 41.3801C23.9181 39.7367 20.1425 37.5669 20.1425 37.5669C20.1425 37.5669 17.6505 49.5621 8.21045 49.5621V30.5796H62.8729Z" fill="#EA9E8F"/>
<path d="M56.0949 38.0063C46.1917 41.575 36.6043 40.3738 29.823 38.4833C29.823 38.4833 29.8202 38.4833 29.8202 38.4814C23.9151 36.8353 20.1403 34.6655 20.1403 34.6655C20.1403 34.6655 17.6474 46.6608 8.20735 46.6608C8.20735 46.6608 1.92683 35.5518 2.12367 25.2731C2.22621 19.9429 6.62074 15.9558 11.6159 15.9558C12.5497 15.9558 13.5037 16.0941 14.454 16.3907C17.1292 9.20563 24.198 4.65912 31.8499 5.12421C33.042 5.19836 34.2413 5.29266 35.4452 5.40161C35.675 5.42084 35.9085 5.44189 36.1383 5.46387C36.1621 5.4657 36.1859 5.46844 36.2097 5.47119C48.7011 6.64398 61.3537 8.92731 68.7878 0.703125C68.7878 0.703125 81.0751 29.0076 56.0949 38.0063Z" fill="#515F75"/>
<path d="M31.8508 5.12441C33.0419 5.19857 34.2413 5.29287 35.4452 5.40181C24.4241 4.93673 15.6671 29.2092 29.8202 38.4816C23.916 36.8355 20.1403 34.6657 20.1403 34.6657C20.1403 34.6657 17.6473 46.661 8.20735 46.661C8.20735 46.661 1.92683 35.552 2.12367 25.2733C2.22621 19.9431 6.62074 15.956 11.6168 15.956C12.5497 15.956 13.5037 16.0943 14.454 16.3909C17.1292 9.20583 24.1979 4.65932 31.8508 5.12441Z" fill="#3B485B"/>
<path d="M36.2186 5.47302C36.1929 5.46844 36.1691 5.46661 36.1426 5.46387C36.1664 5.46661 36.1902 5.46844 36.214 5.47119L36.2186 5.47302Z" fill="#F4AF9D"/>
<path d="M41.0828 76.4381C38.1834 76.4381 35.283 75.3349 33.0756 73.1276C32.3569 72.408 32.3569 71.2416 33.0756 70.5229C33.7952 69.8042 34.9607 69.8042 35.6794 70.5229C38.6594 73.5029 43.5072 73.5029 46.4863 70.5229C47.2059 69.8042 48.3714 69.8042 49.0901 70.5229C49.8097 71.2425 49.8097 72.408 49.0901 73.1276C46.8827 75.3349 43.9832 76.4381 41.0828 76.4381Z" fill="#E06E86"/>
<path d="M93.5819 68.416V80.8187H78.1396V68.416H80.7123H91.0092H93.5819Z" fill="#F4AF9D"/>
<path d="M93.5861 68.416V80.8187H84.3677V68.416H93.5861Z" fill="#F9C2AF"/>
<path d="M78.1396 80.8179H93.5809V119.113H78.1396V80.8179Z" fill="#515F75"/>
<path d="M78.1396 80.8179H84.3167V119.113H78.1396V80.8179Z" fill="#3B485B"/>
<path d="M108.677 41.9741V70.7977H82.8171C76.7801 70.7977 70.4739 64.7854 70.1389 57.2112C70.1251 56.9393 70.1196 56.6647 70.1196 56.3873C70.1196 48.4258 76.5631 41.9741 82.8171 41.9741H108.677Z" fill="#DD8C22"/>
<path d="M49.6118 64.8211H44.3521C40.6927 64.8211 37.7246 61.0464 37.7246 56.3873C37.7246 51.7281 40.6927 47.9507 44.3521 47.9507H49.6146" fill="#DD8C22"/>
<path d="M86.0281 41.9741V70.7977H58.7949C52.7579 70.7977 47.8241 64.7854 47.4899 57.2112C47.4762 56.9393 47.4707 56.6647 47.4707 56.3873C47.4707 48.4258 52.5409 41.9741 58.7949 41.9741H86.0281Z" fill="#EFA233"/>
<path d="M82.6852 57.2109V70.7974H58.7927C52.7557 70.7974 47.8229 64.7851 47.4878 57.2109H82.6852Z" fill="#DD8C22"/>
<path d="M97.3514 56.3873C97.3514 61.809 94.9957 66.5341 91.5176 68.9932C89.8926 70.144 88.0194 70.7968 86.0272 70.7968C79.7732 70.7968 74.7021 64.346 74.7021 56.3873C74.7021 48.4258 79.7732 41.9741 86.0272 41.9741C88.0203 41.9741 89.8926 42.6306 91.5176 43.7805C94.9957 46.2377 97.3514 50.9628 97.3514 56.3873Z" fill="#79BBE8"/>
<path d="M97.3559 56.3866C97.3559 61.8084 95.0003 66.5334 91.5222 68.9925C88.0432 66.5334 85.6885 61.8084 85.6885 56.3866C85.6885 50.9621 88.0441 46.2371 91.5222 43.7798C95.0003 46.2371 97.3559 50.9621 97.3559 56.3866Z" fill="#AEDBF4"/>
<path d="M119.998 56.3864C119.998 48.4268 114.928 41.9741 108.674 41.9741C102.42 41.9741 97.3511 48.4268 97.3511 56.3864C97.3511 64.346 102.42 70.7986 108.674 70.7986C114.928 70.7986 119.998 64.346 119.998 56.3864Z" fill="#79BBE8"/>
<path d="M120 56.3866C120 61.8084 117.644 66.5334 114.166 68.9925C110.688 66.5334 108.333 61.8084 108.333 56.3866C108.333 50.9621 110.688 46.2371 114.166 43.7798C117.644 46.2371 120 50.9621 120 56.3866Z" fill="#AEDBF4"/>
<path d="M71.9681 67.3129V80.1834H56.5259V67.3129C56.5259 65.8911 57.6785 64.7412 59.0985 64.7412H69.3954C70.8145 64.7412 71.9681 65.8911 71.9681 67.3129Z" fill="#F4AF9D"/>
<path d="M71.965 67.3129V80.1834H62.7466V67.3129C62.7466 65.8911 63.8965 64.7412 65.3183 64.7412H69.3924C70.8115 64.7412 71.965 65.8911 71.965 67.3129Z" fill="#F9C2AF"/>
<path d="M56.5259 80.1831H71.9672V119.112H56.5259V80.1831Z" fill="#515F75"/>
<path d="M56.5259 80.1831H62.7029V119.112H56.5259V80.1831Z" fill="#3B485B"/>
</svg>
