<svg width="40" height="40" viewBox="0 0 40 40" fill="none" xmlns="http://www.w3.org/2000/svg">
<path d="M19.9995 3.33331C10.7952 3.33331 3.33337 10.7956 3.33337 19.9996C3.33337 29.2036 10.7952 36.6666 19.9995 36.6666C29.2038 36.6666 36.6665 29.2041 36.6665 19.9996C36.6665 10.7952 29.2038 3.33331 19.9995 3.33331ZM27.9224 15.3272L26.3394 16.9102L23.117 13.6881L21.8946 14.9105L25.1169 18.1329L17.2134 26.0358L13.9913 22.814L12.7688 24.0364L15.9909 27.2585L15.2034 28.0461L15.1884 28.0311C15.101 28.1749 14.959 28.2798 14.7904 28.3172L11.7856 28.9872C11.7406 28.9973 11.6948 29.0022 11.6496 29.0022C11.4856 29.0022 11.3263 28.9376 11.2082 28.8192C11.0566 28.6682 10.9935 28.4501 11.0402 28.2411L11.7098 25.2372C11.7476 25.0686 11.8527 24.9263 11.9963 24.8392L11.981 24.824L24.6999 12.1045C24.8864 11.9184 25.1893 11.9184 25.3757 12.1051L27.9226 14.6514C28.109 14.8379 28.109 15.1408 27.9224 15.3272Z" fill="#3E74FF"/>
<path d="M27.9227 15.3272L26.3397 16.9102L23.1174 13.6881L21.8949 14.9105L25.1173 18.1329L17.2137 26.0358L13.9916 22.814L12.7691 24.0364L15.9913 27.2585L15.2037 28.0461L15.1887 28.0311C15.1014 28.1749 14.9594 28.2798 14.7907 28.3172L11.7859 28.9872C11.7409 28.9973 11.6951 29.0022 11.6499 29.0022C11.4859 29.0022 11.3266 28.9377 11.2085 28.8192C11.0569 28.6682 10.9938 28.4501 11.0405 28.2411L11.7101 25.2372C11.7479 25.0687 11.853 24.9263 11.9966 24.8392L11.9814 24.824L24.7003 12.1045C24.8867 11.9184 25.1896 11.9184 25.376 12.1051L27.9229 14.6514C28.1094 14.8379 28.1094 15.1408 27.9227 15.3272Z" fill="white"/>
</svg>
