<svg width="48" height="48" viewBox="0 0 48 48" fill="none" xmlns="http://www.w3.org/2000/svg">
<path d="M40.9988 34.2187C40.9872 33.1845 40.7414 32.1633 40.3586 31.204C40.0631 30.4614 39.7199 29.7382 39.3847 29.0124C36.7186 23.2889 33.9195 17.6269 30.9921 12.0284C30.5803 11.2462 30.1772 10.4594 29.7422 9.68929C29.3148 8.93814 28.8173 8.21487 28.1731 7.62688C27.1456 6.66209 25.7663 6.08682 24.3514 6H23.6999C22.243 6.07094 20.8209 6.67288 19.7754 7.67665C19.1551 8.25548 18.6749 8.96124 18.2588 9.69132C17.8297 10.4487 17.4323 11.2232 17.0282 11.993C15.0632 15.7487 13.1573 19.5342 11.3087 23.3463C10.207 25.6279 9.11465 27.9134 8.06392 30.2175C7.6281 31.1774 7.23404 32.17 7.08563 33.2179C6.81073 34.9872 7.2049 36.8441 8.16458 38.3633C8.99167 39.6832 10.2335 40.7464 11.6808 41.3606C12.8058 41.8397 14.0485 42.058 15.2721 41.9867C16.9153 41.9007 18.4999 41.3192 19.8904 40.4707C21.4413 39.5332 22.7679 38.2864 24.0029 36.9812C25.1514 38.2002 26.3806 39.3635 27.7993 40.2753C29.1696 41.1632 30.7319 41.8058 32.3753 41.9589C34.1602 42.1426 36.0093 41.7066 37.5072 40.7283C38.8249 39.8734 39.865 38.6126 40.4484 37.1689C40.8273 36.2341 41.0171 35.2247 40.9988 34.2187ZM24.0104 33.5364C23.5624 33.017 23.1676 32.4549 22.7711 31.8972C22.1039 30.9335 21.4973 29.9261 21.0094 28.8617C20.6096 27.9786 20.2886 27.0513 20.1632 26.0886C20.072 25.3246 20.0938 24.5277 20.3785 23.8025C20.6332 23.1223 21.1229 22.5331 21.7433 22.1439C23.2215 21.2044 25.3285 21.3059 26.6678 22.4455C27.3459 23.0144 27.7508 23.8554 27.8527 24.7195C27.9859 25.8683 27.7207 27.022 27.3135 28.0936C26.5444 30.0817 25.3269 31.864 24.0104 33.5364ZM38.514 35.9729C38.1189 37.3155 37.1693 38.4888 35.9273 39.1656C34.8263 39.772 33.5121 39.9799 32.2704 39.7754C30.6893 39.5332 29.2711 38.7073 28.0418 37.7318C27.1386 37.017 26.3252 36.1999 25.5459 35.3578C26.7762 33.8253 27.9353 32.2219 28.8207 30.4693C29.5935 28.9345 30.1804 27.2715 30.2363 25.5456C30.2676 24.4505 30.0583 23.3354 29.5391 22.3604C28.8591 21.0579 27.6409 20.0573 26.2441 19.5731C24.9393 19.1143 23.489 19.0732 22.158 19.4469C20.9029 19.7967 19.7564 20.5395 18.9709 21.5695C18.2795 22.4673 17.8854 23.5711 17.794 24.6908C17.6533 26.3033 18.0637 27.9118 18.6845 29.3941C19.6072 31.5601 20.9616 33.5205 22.4574 35.3394C21.7848 36.1076 21.0491 36.8217 20.2677 37.4823C19.0534 38.4942 17.6639 39.3756 16.0898 39.7109C14.8172 39.9923 13.4442 39.8523 12.2771 39.2706C10.9101 38.5996 9.86051 37.3362 9.46469 35.8838C9.16209 34.8168 9.22906 33.6649 9.58912 32.6196C9.88852 31.7548 10.2947 30.9306 10.6747 30.0986C13.3113 24.4366 16.0812 18.8349 18.9734 13.2954C19.405 12.471 19.8299 11.6429 20.2867 10.832C20.6596 10.1789 21.0932 9.53732 21.7061 9.0787C22.3615 8.57355 23.1961 8.29772 24.0285 8.31625C24.8919 8.30617 25.7498 8.61935 26.4101 9.16572C27.0623 9.69906 27.5025 10.4286 27.8984 11.156C28.7926 12.8105 29.6514 14.484 30.5107 16.1559C32.9624 20.9364 35.3201 25.763 37.5785 30.635C37.9199 31.3918 38.2854 32.1427 38.5151 32.9414C38.7961 33.9264 38.8056 34.99 38.514 35.9729Z" fill="#FD3D76"/>
</svg>
