<svg width="120" height="120" viewBox="0 0 120 120" fill="none" xmlns="http://www.w3.org/2000/svg">
<g opacity="0.6">
<path d="M60 120C93.15 120 120 93.15 120 60C120 26.85 93.15 0 60 0C26.85 0 0 26.85 0 60C0 93.15 26.85 120 60 120Z" fill="#454545"/>
<path d="M106.95 97.35C106.8 97.575 106.575 97.8 106.425 98.025C105.225 99.45 104.025 100.8 102.75 102.075C101.475 103.35 100.125 104.625 98.6998 105.825C98.4748 105.975 98.3248 106.125 98.0998 106.35L63.2248 71.625L72.2248 62.625L92.8498 83.25L106.95 97.35Z" fill="#B7B7B7"/>
<path d="M106.95 97.35C106.8 97.575 106.575 97.8 106.425 98.025C105.225 99.45 104.025 100.8 102.75 102.075L88.2752 87.75L92.7752 83.25L106.95 97.35Z" fill="white"/>
<path d="M48.9 97.8754C75.9 97.8754 97.8 75.9754 97.8 48.9754C97.8 21.9754 75.9 0.0753874 48.9 0.0753874C21.9 0.000387378 0 21.9004 0 48.9004C0 75.9754 21.9 97.8754 48.9 97.8754Z" fill="#C6C6C6"/>
<path d="M48.9001 83.5502C68.0251 83.5502 83.4751 68.0252 83.4751 48.9752C83.4751 29.9252 68.0251 14.3252 48.9001 14.3252C29.7751 14.3252 14.3251 29.8502 14.3251 48.9002C14.3251 67.9502 29.8501 83.5502 48.9001 83.5502Z" fill="white"/>
<path d="M48.9001 89.8502C26.3251 89.8502 7.9501 71.4752 7.9501 48.9002C7.9501 26.3252 26.3251 7.9502 48.9001 7.9502C71.4751 7.9502 89.8501 26.3252 89.8501 48.9002C89.8501 71.4752 71.4751 89.8502 48.9001 89.8502ZM48.9001 16.4252C30.9751 16.4252 16.4251 30.9752 16.4251 48.9002C16.4251 66.8252 30.9751 81.3752 48.9001 81.3752C66.8251 81.3752 81.3751 66.8252 81.3751 48.9002C81.3751 30.9752 66.8251 16.4252 48.9001 16.4252Z" fill="#A3A3A3"/>
<path d="M67.5002 47.5502C68.2502 46.7252 68.1752 45.4502 67.3502 44.7002L49.5002 28.5752C48.6752 27.8252 47.4002 27.8252 46.5752 28.5752L28.6502 45.5252C27.8252 46.2752 27.8252 47.5502 28.5752 48.3752L29.0252 48.8252C29.7752 49.6502 30.9752 49.7252 31.7252 49.0502L33.0752 47.7752V66.0002C33.0752 67.1252 33.9752 68.0252 35.0252 68.0252H42.0002C43.0502 68.0252 43.9502 67.1252 43.9502 66.0002V53.2502H52.8752V66.0002C52.8752 67.1252 53.6252 68.0252 54.6752 68.0252H62.1002C63.1502 68.0252 64.0502 67.1252 64.0502 66.0002V48.0752C64.0502 48.0752 64.4252 48.3752 64.8752 48.8252C65.3252 49.2752 66.3002 48.9002 67.0502 48.0752L67.5002 47.5502Z" fill="#646464"/>
</g>
</svg>
