<svg width="80" height="80" viewBox="0 0 80 80" fill="none" xmlns="http://www.w3.org/2000/svg">
<path d="M80 40C80 62.0914 62.0914 80 40 80C31.0678 80 22.8213 77.0727 16.1633 72.1258C14.6645 71.0106 13.2458 69.7944 11.9184 68.485C10.6319 67.2181 9.43188 65.863 8.32656 64.4328C3.10531 57.6752 0 49.2 0 40C0 30.8 3.10531 22.3248 8.32656 15.5673C10.5731 12.6595 13.2114 10.0686 16.1633 7.87422C22.8213 2.92734 31.0678 0 40 0C62.0914 0 80 17.9086 80 40Z" fill="#3B465C"/>
<path d="M16.1636 0V77.8571C14.6649 76.742 13.2461 75.5257 11.9188 74.2164C10.6322 72.9495 9.43222 71.5943 8.3269 70.1642V0H16.1636Z" fill="#E89435"/>
<path d="M16.1634 0H11.9187V12.6155H16.1634V0Z" fill="#FDBC69"/>
<path d="M16.1638 17.6603V72.1256C14.665 71.0104 13.2463 69.7942 11.9189 68.4848V17.6603H16.1638Z" fill="#FDBC69"/>
<path d="M74.9385 7.71704H1.14258V15.2403H74.9385V7.71704Z" fill="#FDBC69"/>
<path d="M74.9385 12.9142H1.14258V15.2409H74.9385V12.9142Z" fill="#E89435"/>
<path d="M67.6205 56.6971H27.0748C23.9342 56.6971 21.3884 54.1512 21.3884 51.0107V27.7711C21.3884 24.6305 23.9344 22.0847 27.0748 22.0847H67.6203C70.7609 22.0847 73.3067 24.6307 73.3067 27.7711V51.0105C73.3069 54.1512 70.7609 56.6971 67.6205 56.6971Z" fill="#E0E2E2"/>
<path d="M33.3481 26.6556C32.1759 26.6556 31.2256 25.7055 31.2256 24.5331V5.15045C31.2256 3.97827 32.1757 3.02795 33.3481 3.02795C34.5203 3.02795 35.4706 3.97811 35.4706 5.15045V24.5333C35.4706 25.7055 34.5204 26.6556 33.3481 26.6556Z" fill="#34A8C0"/>
<path d="M61.3459 26.6556C60.1737 26.6556 59.2234 25.7055 59.2234 24.5331V5.15045C59.2234 3.97827 60.1735 3.02795 61.3459 3.02795C62.5181 3.02795 63.4684 3.97811 63.4684 5.15045V24.5333C63.4684 25.7055 62.5182 26.6556 61.3459 26.6556Z" fill="#34A8C0"/>
<path d="M59.6868 38.4476C60.14 37.9328 60.0962 37.1437 59.5891 36.6856L48.4163 26.5874C47.9091 26.1293 47.0961 26.1389 46.5996 26.609L35.3888 37.224C34.8924 37.6941 34.868 38.4822 35.3349 38.9835L35.6159 39.2858C36.0822 39.7871 36.836 39.8469 37.2984 39.4189L38.1362 38.6439V49.9903C38.1362 50.6864 38.6823 51.25 39.3558 51.25H43.7257C44.3992 51.25 44.9453 50.6864 44.9453 49.9903V42.0524H50.5193V49.9903C50.5096 50.6859 50.9914 51.2495 51.6649 51.2495H56.296C56.9695 51.2495 57.5156 50.6859 57.5156 49.9898V38.8037C57.5156 38.8037 57.747 39.0131 58.0325 39.2723C58.3175 39.5309 58.916 39.3235 59.3692 38.8082L59.6868 38.4476Z" fill="#B5423C"/>
</svg>
