<svg width="112" height="112" viewBox="0 0 112 112" fill="none" xmlns="http://www.w3.org/2000/svg">
<path d="M56 112C86.9279 112 112 86.9279 112 56C112 25.0721 86.9279 0 56 0C25.0721 0 0 25.0721 0 56C0 86.9279 25.0721 112 56 112Z" fill="#3B465C"/>
<path d="M99.7962 90.8939C99.6225 91.1112 99.4488 91.326 99.2727 91.5408C98.187 92.8642 97.0395 94.1373 95.8396 95.3534C95.8282 95.3647 95.8191 95.3739 95.8077 95.3853C94.6054 96.5989 93.3505 97.7579 92.0432 98.8573C91.8581 99.015 91.6707 99.1703 91.481 99.3237L59.0352 66.878L67.41 58.5054L86.6261 77.7215L99.7962 90.8939Z" fill="#B7B7B7"/>
<path d="M99.7995 90.8939C99.6258 91.1111 99.4521 91.3259 99.276 91.5407C98.1904 92.8642 97.0428 94.1373 95.843 95.3533L82.4189 81.9293L86.6292 77.7212L99.7995 90.8939Z" fill="white"/>
<path d="M45.6617 91.3233C70.8799 91.3233 91.3233 70.8799 91.3233 45.6617C91.3233 20.4434 70.8799 0 45.6617 0C20.4434 0 0 20.4434 0 45.6617C0 70.8799 20.4434 91.3233 45.6617 91.3233Z" fill="#FDBC69"/>
<path d="M45.6639 77.9499C63.496 77.9499 77.9519 63.4941 77.9519 45.662C77.9519 27.8298 63.496 13.374 45.6639 13.374C27.8318 13.374 13.376 27.8298 13.376 45.662C13.376 63.4941 27.8318 77.9499 45.6639 77.9499Z" fill="white"/>
<path d="M45.6614 83.8871C24.5847 83.8871 7.4375 66.7399 7.4375 45.6631C7.4375 24.5863 24.5847 7.43896 45.6614 7.43896C66.7382 7.43896 83.8856 24.5861 83.8856 45.6629C83.8856 66.7397 66.7384 83.8871 45.6614 83.8871ZM45.6614 15.3328C28.9373 15.3328 15.3311 28.939 15.3311 45.6631C15.3311 62.3872 28.9373 75.9935 45.6614 75.9935C62.3855 75.9935 75.9918 62.3872 75.9918 45.6631C75.9918 28.939 62.3858 15.3328 45.6614 15.3328Z" fill="#E89435"/>
<path d="M62.9974 44.3484C63.6742 43.5796 63.6088 42.4012 62.8515 41.7171L46.1668 26.6371C45.4095 25.953 44.1953 25.9673 43.4539 26.6694L26.7125 42.5211C25.9711 43.2232 25.9347 44.4 26.6319 45.1486L27.0516 45.6001C27.748 46.3487 28.8736 46.4379 29.5641 45.7989L30.8152 44.6415V61.5855C30.8152 62.625 31.6307 63.4666 32.6364 63.4666H39.1623C40.168 63.4666 40.9835 62.625 40.9835 61.5855V49.7315H49.3073V61.5855C49.2928 62.6243 50.0124 63.4659 51.0181 63.4659H57.9339C58.9396 63.4659 59.7551 62.6243 59.7551 61.5847V44.8801C59.7551 44.8801 60.1007 45.1928 60.527 45.5799C60.9526 45.9662 61.8464 45.6564 62.5232 44.8869L62.9974 44.3484Z" fill="#B5423C"/>
</svg>
